<svg width="336" height="336" viewBox="0 0 336 336" fill="none" xmlns="http://www.w3.org/2000/svg">
<g clip-path="url(#clip0_20_14)">
<path d="M56 70C56 66.287 57.475 62.726 60.1005 60.1005C62.726 57.475 66.287 56 70 56H266C269.713 56 273.274 57.475 275.9 60.1005C278.525 62.726 280 66.287 280 70V98C280 101.713 278.525 105.274 275.9 107.899C273.274 110.525 269.713 112 266 112H70C66.287 112 62.726 110.525 60.1005 107.899C57.475 105.274 56 101.713 56 98V70Z" stroke="black" stroke-width="24" stroke-linecap="round" stroke-linejoin="round"/>
<path d="M56 182C56 178.287 57.475 174.726 60.1005 172.101C62.726 169.475 66.287 168 70 168H126C129.713 168 133.274 169.475 135.899 172.101C138.525 174.726 140 178.287 140 182V266C140 269.713 138.525 273.274 135.899 275.9C133.274 278.525 129.713 280 126 280H70C66.287 280 62.726 278.525 60.1005 275.9C57.475 273.274 56 269.713 56 266V182Z" stroke="black" stroke-width="24" stroke-linecap="round" stroke-linejoin="round"/>
<path d="M196 168H280" stroke="black" stroke-width="24" stroke-linecap="round" stroke-linejoin="round"/>
<path d="M196 224H280" stroke="black" stroke-width="24" stroke-linecap="round" stroke-linejoin="round"/>
<path d="M196 280H280" stroke="black" stroke-width="24" stroke-linecap="round" stroke-linejoin="round"/>
</g>
<defs>
<clipPath id="clip0_20_14">
<rect width="336" height="336" fill="white"/>
</clipPath>
</defs>
</svg>
